<?xml version="1.0" encoding="UTF-8"?>
<svg width="20px" height="20px" viewBox="0 0 24 22" version="1.1" xmlns="http://www.w3.org/2000/svg" xmlns:xlink="http://www.w3.org/1999/xlink">
    <title>adjust</title>
    <g id="Page-1" stroke="none" stroke-width="1" fill="none" fill-rule="evenodd">
        <g id="adjust" fill="#ffffff" fill-rule="nonzero">
            <path d="M4.048125,3.19125 L4.048125,0.03703125 L2.641875,0.03703125 L2.641875,3.19125 L0,3.19125 L0,8.68875 L2.641875,8.68875 L2.641875,21.8067188 L4.048125,21.8067188 L4.048125,8.68875 L6.68953125,8.68875 L6.68953125,3.19125 L4.048125,3.19125 Z M5.28328125,7.2825 L1.40625,7.2825 L1.40625,4.5975 L5.28328125,4.5975 L5.28328125,7.2825 Z" id="Shape"></path>
            <path d="M12.703125,9.74671875 L12.703125,0.03703125 L11.296875,0.03703125 L11.296875,9.74671875 L8.655,9.74671875 L8.655,15.2446875 L11.296875,15.2446875 L11.296875,21.8067187 L12.703125,21.8067187 L12.703125,15.2446875 L15.345,15.2446875 L15.345,9.74671875 L12.703125,9.74671875 Z M13.93875,13.8384375 L10.06125,13.8384375 L10.06125,11.1529687 L13.93875,11.1529687 L13.93875,13.8384375 Z" id="Shape"></path>
            <path d="M21.358125,3.19125 L21.358125,0.03703125 L19.951875,0.03703125 L19.951875,3.19125 L17.3104687,3.19125 L17.3104687,8.68875 L19.951875,8.68875 L19.951875,21.8067188 L21.358125,21.8067188 L21.358125,8.68875 L24,8.68875 L24,3.19125 L21.358125,3.19125 Z M22.59375,7.2825 L18.7167188,7.2825 L18.7167188,4.5975 L22.59375,4.5975 L22.59375,7.2825 Z" id="Shape"></path>
        </g>
    </g>
</svg>