<?xml version="1.0" encoding="UTF-8"?>
<svg width="20px" height="20px" viewBox="0 0 16 24" version="1.1" xmlns="http://www.w3.org/2000/svg" xmlns:xlink="http://www.w3.org/1999/xlink">
    <title>select</title>
    <g id="Page-1" stroke="none" stroke-width="1" fill="none" fill-rule="evenodd">
        <g id="select" fill="#ffffff" fill-rule="nonzero">
            <path d="M0.703125,5.625 C1.0914375,5.625 1.40625,5.3101875 1.40625,4.921875 C1.40625,2.98335938 2.98335938,1.40625 4.921875,1.40625 C6.86039062,1.40625 8.4375,2.98335938 8.4375,4.921875 C8.4375,5.3101875 8.7523125,5.625 9.140625,5.625 C9.5289375,5.625 9.84375,5.3101875 9.84375,4.921875 C9.84375,2.20795312 7.63579687,0 4.921875,0 C2.20795313,0 0,2.20795312 0,4.921875 C0,5.3101875 0.3148125,5.625 0.703125,5.625 Z" id="Path"></path>
            <path d="M3.2011875,23.9257969 C3.29882812,23.9745937 3.40645312,24 3.515625,24 L13.359375,24 C13.5458906,24 13.7246719,23.9259375 13.8565781,23.7940312 C14.8962187,22.7543906 15.46875,21.3721406 15.46875,19.9019062 L15.46875,13.453125 C15.46875,12.2900156 14.5224844,11.34375 13.359375,11.34375 C13.0848281,11.34375 12.8227031,11.3970469 12.5819062,11.4928594 C12.3379219,10.5977344 11.5182656,9.9375 10.546875,9.9375 C10.2723281,9.9375 10.0102031,9.99079688 9.76940625,10.0866094 C9.52542187,9.19148437 8.70576562,8.53125 7.734375,8.53125 C7.48790625,8.53125 7.25132812,8.57414062 7.03125,8.6521875 L7.03125,4.921875 C7.03125,3.75876563 6.08498437,2.8125 4.921875,2.8125 C3.75876563,2.8125 2.8125,3.75876563 2.8125,4.921875 L2.8125,12.75 L2.109375,12.75 C0.946265625,12.75 0,13.6962656 0,14.859375 L0,18.7461562 C0,19.8224063 0.2990625,20.8751719 0.864890625,21.7906406 C1.43067187,22.7061563 2.2385625,23.4444375 3.2011875,23.9257969 L3.2011875,23.9257969 Z M1.40625,14.859375 C1.40625,14.4716719 1.72167188,14.15625 2.109375,14.15625 L2.8125,14.15625 L2.8125,17.1790313 C2.8125,17.5673437 3.1273125,17.8821563 3.515625,17.8821563 C3.9039375,17.8821563 4.21875,17.5673437 4.21875,17.1790313 L4.21875,4.921875 C4.21875,4.53417188 4.53417188,4.21875 4.921875,4.21875 C5.30957813,4.21875 5.625,4.53417188 5.625,4.921875 L5.625,14.859375 C5.625,15.2476875 5.9398125,15.5625 6.328125,15.5625 C6.7164375,15.5625 7.03125,15.2476875 7.03125,14.859375 L7.03125,10.640625 C7.03125,10.2529219 7.34667188,9.9375 7.734375,9.9375 C8.12207812,9.9375 8.4375,10.2529219 8.4375,10.640625 L8.4375,14.859375 C8.4375,15.2476875 8.7523125,15.5625 9.140625,15.5625 C9.5289375,15.5625 9.84375,15.2476875 9.84375,14.859375 L9.84375,12.046875 C9.84375,11.6591719 10.1591719,11.34375 10.546875,11.34375 C10.9345781,11.34375 11.25,11.6591719 11.25,12.046875 L11.25,14.859375 C11.25,15.2476875 11.5648125,15.5625 11.953125,15.5625 C12.3414375,15.5625 12.65625,15.2476875 12.65625,14.859375 L12.65625,13.453125 C12.65625,13.0654219 12.9716719,12.75 13.359375,12.75 C13.7470781,12.75 14.0625,13.0654219 14.0625,13.453125 L14.0625,19.9019062 C14.0625,20.9020781 13.7065781,21.8475938 13.0547344,22.59375 L3.68798437,22.59375 C2.27634375,21.8239219 1.40625,20.3641406 1.40625,18.7461562 L1.40625,14.859375 Z" id="Shape"></path>
        </g>
    </g>
</svg>