<?xml version="1.0" encoding="UTF-8"?>
<svg width="20px" height="20px" viewBox="0 0 19 24" version="1.1" xmlns="http://www.w3.org/2000/svg" xmlns:xlink="http://www.w3.org/1999/xlink">
    <title>separation</title>
    <g id="Page-1" stroke="none" stroke-width="1" fill="none" fill-rule="evenodd">
        <g id="separation" fill="#ffffff" fill-rule="nonzero">
            <path d="M5.625,5.015625 C5.625,3.85251562 4.67873437,2.90625 3.515625,2.90625 C2.35251563,2.90625 1.40625,3.85251562 1.40625,5.015625 C1.40625,6.17873437 2.35251562,7.125 3.515625,7.125 C4.67873437,7.125 5.625,6.17873437 5.625,5.015625 Z M3.515625,5.71875 C3.12792188,5.71875 2.8125,5.40332812 2.8125,5.015625 C2.8125,4.62792188 3.12792188,4.3125 3.515625,4.3125 C3.90332813,4.3125 4.21875,4.62792188 4.21875,5.015625 C4.21875,5.40332812 3.90332812,5.71875 3.515625,5.71875 Z" id="Shape"></path>
            <path d="M0,10.640625 L0,13.7443594 L1.40625,15.1506094 L1.40625,21.1875 L5.625,21.1875 L5.625,15.1506094 L7.03125,13.7443594 L7.03125,10.640625 C7.03125,8.70210938 5.45414062,7.125 3.515625,7.125 C1.57710938,7.125 0,8.70210938 0,10.640625 Z M1.40625,10.640625 C1.40625,9.47751563 2.35251562,8.53125 3.515625,8.53125 C4.67873437,8.53125 5.625,9.47751563 5.625,10.640625 L5.625,13.1618906 L4.21875,14.5681406 L4.21875,19.78125 L2.8125,19.78125 L2.8125,14.5681406 L1.40625,13.1618906 L1.40625,10.640625 Z" id="Shape"></path>
            <path d="M16.875,5.015625 C16.875,3.85251562 15.9287344,2.90625 14.765625,2.90625 C13.6025156,2.90625 12.65625,3.85251562 12.65625,5.015625 C12.65625,6.17873437 13.6025156,7.125 14.765625,7.125 C15.9287344,7.125 16.875,6.17873437 16.875,5.015625 Z M14.765625,5.71875 C14.3779219,5.71875 14.0625,5.40332812 14.0625,5.015625 C14.0625,4.62792188 14.3779219,4.3125 14.765625,4.3125 C15.1533281,4.3125 15.46875,4.62792188 15.46875,5.015625 C15.46875,5.40332812 15.1533281,5.71875 14.765625,5.71875 Z" id="Shape"></path>
            <path d="M18.28125,10.640625 C18.28125,8.70210938 16.7041406,7.125 14.765625,7.125 C12.8271094,7.125 11.25,8.70210938 11.25,10.640625 L11.25,13.7443594 L12.65625,15.1506094 L12.65625,21.1875 L16.875,21.1875 L16.875,15.1506094 L18.28125,13.7443594 L18.28125,10.640625 Z M16.875,13.1618906 L15.46875,14.5681406 L15.46875,19.78125 L14.0625,19.78125 L14.0625,14.5681406 L12.65625,13.1618906 L12.65625,10.640625 C12.65625,9.47751563 13.6025156,8.53125 14.765625,8.53125 C15.9287344,8.53125 16.875,9.47751563 16.875,10.640625 L16.875,13.1618906 Z" id="Shape"></path>
            <polygon id="Path" points="8.4375 0 9.84375 0 9.84375 2.90625 8.4375 2.90625"></polygon>
            <polygon id="Path" points="8.4375 4.3125 9.84375 4.3125 9.84375 7.125 8.4375 7.125"></polygon>
            <polygon id="Path" points="8.4375 8.53125 9.84375 8.53125 9.84375 11.34375 8.4375 11.34375"></polygon>
            <polygon id="Path" points="8.4375 12.75 9.84375 12.75 9.84375 15.5625 8.4375 15.5625"></polygon>
            <polygon id="Path" points="8.4375 16.96875 9.84375 16.96875 9.84375 19.78125 8.4375 19.78125"></polygon>
            <polygon id="Path" points="8.4375 21.1875 9.84375 21.1875 9.84375 24 8.4375 24"></polygon>
        </g>
    </g>
</svg>